<?xml version="1.0" encoding="UTF-8"?>
<svg id="Capa_1" data-name="Capa 1" xmlns="http://www.w3.org/2000/svg" viewBox="0 0 24 20.23">
  <defs>
    <style>
      .cls-1 {
        fill: #4A6FA5;
      }
    </style>
  </defs>
  <path class="cls-1" d="M11.05,14.81c-.37,2.12-2.55,2.18-3.99,3.13-1.21.8-2.77,3.42-4.44,1.74-1.51-1.51.02-4.82-.38-6.73-.2-.94-1.11-1.79-1.47-2.73C-2.59,1.63,5.72-3.15,12.18,2.37c1.89-2.86,6.53-3.01,9.19-1.11,3.77,2.69,2.84,6.52,1.18,10.18-.3.66-1.05,1.11-1.16,1.78-.29,1.78,1.64,5.26-.45,6.63s-3.49-1.97-4.55-1.97c-2.76,1.57-4.32,2.56-7.29.81-.42-.25-.82.06-.64-.8,2.58.86,4.46,1.57,6.78-.49,0-.31-2.26-1.03-2.26-1.94v-7.28c1.79.37,4.44,3.46.65,1.62.08,1.31-.13,2.72.03,4.01.35,2.82,1.46,2,3.31,3.16,1.2.75,4.17,4.17,4.11.45-.02-1.57-.86-6.55-1.38-8.03-.79-2.26-2.45-2.99-4.46-3.95v-.81c3.55.63,5.73,3.63,5.99,7.11,1.84-2.57,2.88-6.77.37-9.26C18.87-.24,14.14.35,12.18,3.66,9.47,1.2,6.46-.57,2.99,1.9-.29,4.24.46,8.52,2.49,11.42c.74-4.07,2.94-6.22,6.95-7.12l-.97-1.61c2.07-.61,3.14,3.33,2.42,4.52-.27.45-1.85,1.03-2.29,1.59-2.34-.86,1.2-1.59,1.44-1.96.26-.41.02-1.86-.43-1.88-2.07,1.21-4.09,1.41-5.28,3.77-.67,1.33-1.67,7.46-1.63,9.01.07,2.91,2.99.66,3.83-.66-1.08-.92-2.83-1.68-2.58-3.39,1.09.53,2.28,2.68,3.46,2.86.79.12,2.68-1,2.68-1.73v-5.01l-3.56,2.11-.64-.65,4.4-3.05.77.46c-.23,1.86.31,4.38,0,6.14Z"/>
  <path class="cls-1" d="M15.58,3.33c-5.54,3.37,2.02,4.81,3.08,6.47.34.54,0,.66-.33.97l-5.35-3.44c.04-1.21-.19-2.35.38-3.46.43-.83,2.09-2.43,2.22-.53Z"/>
</svg>